# xmcd
#
# Track frame offsets:
# 150
# 19041
# 42485
# 60573
# 82633
# 105433
# 124042
# 142446
# 164362
# 192738
# 217383
# 239835
# 265696
#
# Disc length: 3737 seconds
#
#
# Revision: 0
# Processed by: cddbd v1.5.1PL0 Copyright (c) Steve Scherf et al.
# Submitted via: FreeRIP 2.90 
#
DISCID=c30e970d
DTITLE=Downchild - Come On In
DYEAR=2004
DGENRE=Blues
TTITLE0=Come On In
TTITLE1=Scars
TTITLE2=Don't Leave It Too Long
TTITLE3=Sad Sad Day
TTITLE4=There's A Blues Band There
TTITLE5=Jump Right Up
TTITLE6=Tonight I Want To Dance With You
TTITLE7=Now You're Hooked
TTITLE8=How Long
TTITLE9=Cotton In My Ears (instrumental)
TTITLE10=A Garden In Her Front Yard
TTITLE11=Droppin' Like Flies
TTITLE12=Cruisin' (instrumental)
EXTD=Bluesfestradio.com
EXTT0=
EXTT1=
EXTT2=
EXTT3=
EXTT4=
EXTT5=
EXTT6=
EXTT7=
EXTT8=
EXTT9=
EXTT10=
EXTT11=
EXTT12=
PLAYORDER=
